<svg width="343" height="99" viewBox="0 0 343 99" fill="none" xmlns="http://www.w3.org/2000/svg">
<g clip-path="url(#clip0_161_116)">
<path d="M1.50041 47.4639C2.42026 45.7231 5.75469 42.8911 11.5037 38.968C13.6286 37.5055 16.1397 35.9095 19.0372 34.1802C21.9347 32.4509 25.2807 30.5733 29.075 28.5473C32.6993 26.5971 36.4639 24.9195 40.3374 23.5284C44.0558 22.2108 47.1454 21.5508 49.6059 21.5485C51.2731 21.5485 52.6184 21.8693 53.6417 22.5109C55.1296 23.4307 55.8724 24.8795 55.8701 26.8571C55.8701 29.2648 54.6398 32.5579 52.1792 36.7362C52.0792 36.9156 51.8136 37.3399 51.3927 38.0056C50.9719 38.6714 50.5787 39.2923 50.2199 39.8718C49.9946 40.2112 49.7896 40.5636 49.6059 40.9273C49.9005 40.722 50.1764 40.4912 50.4303 40.2374C50.7753 39.9166 50.9995 39.72 51.103 39.6406L59.9093 32.4521C65.909 27.8368 70.5082 24.5023 73.707 22.4488C79.7067 18.5532 84.4875 16.2536 88.0496 15.5499C88.6839 15.4346 89.3264 15.37 89.971 15.3568C91.1244 15.3236 92.2638 15.6165 93.2583 16.2019C94.1686 16.767 94.8446 17.6415 95.1623 18.6648C95.4347 19.5232 95.5652 20.4203 95.5487 21.3208C95.5487 23.0386 95.1646 25.1911 94.3966 27.7781C93.2529 31.4154 91.8855 34.9786 90.3021 38.4472C88.444 42.6393 86.579 46.5038 84.7072 50.0406L79.2467 60.4579C79.2237 60.5084 78.6212 61.6755 77.4392 63.959C77.3392 64.1625 77.184 64.4661 76.9805 64.8628C76.777 65.2594 76.6355 65.5526 76.5183 65.7665C76.3621 66.0536 76.2205 66.3483 76.094 66.6496C75.9146 67.06 75.787 67.3394 75.7111 67.5326C75.6345 67.6894 75.5136 67.8203 75.3634 67.9092C75.2132 67.9981 75.0403 68.041 74.866 68.0328C74.4795 68.0323 74.1083 67.8814 73.8312 67.6119C73.6781 67.4699 73.5576 67.2966 73.4779 67.1037C73.3981 66.9108 73.3609 66.7029 73.3689 66.4943C73.3847 66.2159 73.4501 65.9426 73.5621 65.6872C74.459 63.5876 76.8551 58.9229 80.7507 51.6929C82.6709 48.1055 85.0165 43.3384 87.7875 37.3916C91.0069 30.3939 92.75 25.0876 93.0168 21.4726C93.0651 21.0104 93.0927 20.6792 93.0927 20.4723C93.0927 18.9373 92.5028 18.0887 91.3231 17.9369C91.0807 17.9052 90.8362 17.8925 90.5919 17.899C88.3865 17.899 84.7348 19.3087 79.6365 22.128C77.629 23.2571 75.4593 24.6196 73.1275 26.2155C70.9245 27.7034 68.8479 29.1774 66.8978 30.6377L60.8614 35.2909C60.7096 35.4186 60.4578 35.6152 60.1128 35.8842C59.7679 36.1533 59.5161 36.3534 59.3643 36.481L42.9072 50.5546C42.7848 50.6483 42.6695 50.7509 42.5622 50.8616L42.2552 51.1686C41.9103 51.4756 41.6654 51.6825 41.5653 51.7826L39.6026 53.8108C39.1646 54.3248 38.7817 54.7974 38.4471 55.2354L32.2381 62.3481C31.8766 62.8495 31.4639 63.312 31.0067 63.7279C30.7648 63.9496 30.5453 64.1945 30.3513 64.4592L25.9533 69.2642C25.726 69.4656 25.5138 69.6835 25.3186 69.9161C25.0496 70.2266 24.8253 70.4681 24.6287 70.6474L23.9388 71.3201C23.8716 71.3719 23.7919 71.4052 23.7077 71.4166C23.4877 71.4849 23.2751 71.575 23.073 71.6857H22.3383C21.4139 71.1234 20.9586 70.5439 20.9586 69.961C20.9966 69.4802 21.1543 69.0165 21.4173 68.6123L23.487 65.8527C23.7698 65.5457 24.1769 65.1077 24.6977 64.5454C25.2186 63.9832 25.6153 63.5451 25.8705 63.2381L33.1764 55.8184C33.304 55.6908 33.6972 55.3355 34.3492 54.7594C35.0011 54.1834 35.4564 53.7556 35.7289 53.4728C36.1393 53.0119 36.582 52.5808 37.0535 52.1827C37.633 51.686 38.0228 51.3307 38.2263 51.1272C38.5368 50.8213 39.2864 49.9015 40.4753 48.3677C41.6642 46.8338 42.376 45.937 42.6105 45.6771L44.763 42.8693C50.0957 35.5404 52.9542 30.2513 53.3382 27.002C53.3662 26.7339 53.3788 26.4644 53.3761 26.1948C53.4 25.9358 53.3713 25.6746 53.2919 25.4268C53.2125 25.1791 53.0839 24.9499 52.9139 24.753C52.4482 24.3959 51.8855 24.1879 51.2996 24.1562C50.9424 24.1121 50.5832 24.0867 50.2234 24.0803C46.6613 24.0803 40.7789 26.0155 32.5762 29.8857C29.8787 31.1183 26.7421 32.7809 23.1662 34.8736C19.5903 36.9662 16.533 38.8818 13.9942 40.6203C7.53689 45.1045 4.01274 48.1216 3.42174 49.6715H3.53557C6.56185 49.6715 13.0985 47.5835 23.1455 43.4074C24.7598 42.7382 25.7325 42.4071 26.0671 42.4071C26.1709 42.4003 26.2751 42.4132 26.3741 42.445C26.6813 42.5379 26.9508 42.7265 27.1434 42.9831C27.359 43.2275 27.4812 43.5403 27.4883 43.8662C27.4883 44.356 27.1916 44.7147 26.6018 44.9424C25.222 45.584 23.5433 46.3279 21.5657 47.1742C19.588 48.0204 16.6537 49.0713 12.7627 50.3269C8.86491 51.5963 5.91681 52.231 3.91845 52.231C1.73842 52.231 0.649559 51.5262 0.651859 50.1165C0.655309 49.399 0.934711 48.516 1.50041 47.4639Z" fill="white"/>
<path d="M95.0828 45.0804H95.3105C95.5088 45.0845 95.7039 45.1313 95.8825 45.2176C96.061 45.3039 96.2189 45.4277 96.3453 45.5806C96.6343 45.865 96.8003 46.2514 96.8075 46.6568C96.8075 46.8638 96.5833 47.2846 96.1177 47.9262C95.7289 48.4398 95.4474 49.0263 95.2898 49.6509C95.2566 49.758 95.266 49.8737 95.3162 49.974C95.3663 50.0743 95.4533 50.1513 95.5589 50.189C96.1397 50.3888 96.7524 50.4801 97.3663 50.4581C99.7786 50.4581 102.573 49.8429 105.748 48.6126C106.298 48.3526 106.877 48.1592 107.473 48.0366C107.793 48.0415 108.102 48.1492 108.356 48.3436C108.553 48.4753 108.716 48.6525 108.83 48.8602C108.944 49.068 109.006 49.3001 109.012 49.5371C109.006 49.7539 108.932 49.9634 108.801 50.1361C108.67 50.3088 108.488 50.4359 108.28 50.4994C104.615 52.1391 101.257 52.9589 98.208 52.9589C96.4626 52.9589 95.1162 52.6254 94.1687 51.9586C93.8308 51.6966 93.5332 51.3863 93.2857 51.0376C92.9333 50.5433 92.7451 49.9509 92.7476 49.3439C92.7902 48.5307 93.0267 47.7394 93.4375 47.0362C93.7203 46.5499 93.9376 46.1808 94.0929 45.9221C94.3019 45.5243 94.6566 45.2228 95.0828 45.0804ZM104.462 28.5853H104.731C105.179 28.5908 105.606 28.7702 105.924 29.0855C106.256 29.3714 106.474 29.7667 106.538 30.1997C106.642 30.8688 106.514 31.3276 106.155 31.5794C106.073 31.6378 105.987 31.6897 105.897 31.7346C105.824 31.7683 105.746 31.787 105.666 31.7898C105.583 31.7897 105.5 31.784 105.417 31.7726C105.337 31.7661 105.259 31.7463 105.186 31.7139C105.134 31.6898 105.059 31.6553 104.955 31.6174C104.876 31.5901 104.799 31.5579 104.724 31.5208H104.686C104.447 31.5886 104.225 31.7061 104.034 31.8657C103.7 32.0835 103.378 32.3208 103.072 32.5763C102.766 32.8362 102.452 33.1052 102.13 33.3835C101.955 33.5355 101.771 33.6761 101.578 33.8043C101.372 33.9615 101.179 34.1357 101.002 34.3252C100.847 34.4907 100.733 34.6115 100.657 34.6701C100.567 34.7605 100.459 34.8314 100.341 34.8783C100.222 34.9252 100.095 34.9471 99.9672 34.9426C99.5788 34.9287 99.2096 34.77 98.9324 34.4976C98.7778 34.3715 98.6525 34.2134 98.5649 34.0341C98.4774 33.8549 98.4298 33.6588 98.4253 33.4593C98.4261 33.307 98.459 33.1566 98.5219 33.0178C98.601 32.8548 98.7045 32.7047 98.8289 32.5728C98.9703 32.4211 99.0842 32.3003 99.1738 32.2279C99.2635 32.1555 99.4084 32.0106 99.6154 31.8416C99.8223 31.6726 99.9362 31.5794 99.9603 31.5553C102.102 29.6995 103.593 28.7164 104.462 28.5853Z" fill="white"/>
<path d="M126.111 49.9234L126.069 50.0027C125.976 50.1614 125.873 50.3146 125.762 50.4615C125.478 50.6038 125.173 50.7015 124.858 50.7512C124.358 50.8651 123.872 50.9685 123.399 51.0582L121.823 51.348C121.247 51.4515 120.93 51.4998 120.881 51.4998C118.267 51.9091 116.292 52.1781 114.959 52.3069C113.454 52.4949 111.939 52.5986 110.423 52.6174C109.818 52.6169 109.214 52.5777 108.615 52.5001C107.736 52.4236 106.902 52.0738 106.232 51.4998C106.059 51.3366 105.923 51.1396 105.83 50.9212C105.738 50.7028 105.691 50.4676 105.693 50.2304C105.703 49.8213 105.853 49.4279 106.118 49.1162C106.321 48.861 106.463 48.7092 106.501 48.6574L106.925 48.2332C107.2 47.9437 107.495 47.674 107.808 47.426C108.829 46.6601 109.932 46.0089 111.095 45.484C112.151 44.9434 113.311 44.6352 114.496 44.5802C114.676 44.5769 114.857 44.5896 115.034 44.6182C116.062 44.7975 116.678 45.3104 116.88 46.1566C116.912 46.2686 116.926 46.3851 116.921 46.5016C116.921 47.219 116.483 47.9331 115.614 48.6367C114.745 49.3404 114.138 49.7061 113.806 49.7337C113.586 49.7327 113.369 49.6841 113.17 49.5912C112.97 49.4983 112.793 49.3633 112.651 49.1955C112.357 48.8524 112.194 48.416 112.192 47.9641C111.594 48.2046 111.026 48.5136 110.498 48.8851C109.678 49.3749 109.191 49.7727 109.039 50.0786C109.371 50.1101 109.704 50.1228 110.036 50.1165C112.115 50.0651 114.189 49.8854 116.245 49.5784C118.936 49.2197 121.102 48.8748 122.744 48.5436C124.022 48.2608 124.74 48.1458 124.896 48.1987C125.189 48.2822 125.454 48.4416 125.666 48.6609C125.69 48.685 125.845 48.9541 126.128 49.4681L126.111 49.9234Z" fill="white"/>
<path d="M172.816 8.70972C172.87 8.75255 172.927 8.79063 172.988 8.82355C173.05 8.85505 173.108 8.89447 173.161 8.94083L173.336 9.07535C173.404 9.12044 173.467 9.17121 173.526 9.22713C173.568 9.26507 173.616 9.32371 173.681 9.3996C173.733 9.45934 173.778 9.52405 173.816 9.59277C173.846 9.65521 173.871 9.71977 173.892 9.78593C173.919 9.86662 173.939 9.9498 173.95 10.0343C173.965 10.1302 173.972 10.2271 173.971 10.324C173.983 10.4893 173.936 10.6533 173.837 10.7863C173.697 10.9303 173.549 11.0651 173.392 11.1898C173.157 11.3916 172.951 11.6236 172.778 11.8797C170.214 15.3291 167.984 18.5716 166.089 21.6071C165.551 22.4763 164.667 23.8561 163.437 25.7464C162.206 27.6366 161.113 29.3522 160.156 30.8929C159.193 32.4313 158.352 33.8111 157.635 35.0322C157.329 35.5703 156.688 36.6212 155.713 38.185C154.738 39.7487 154.008 40.9663 153.523 41.8379C153.086 42.6312 152.387 43.8167 151.426 45.3942C150.465 46.9718 149.792 48.0928 149.408 48.7574C148.281 50.6799 146.948 52.9864 145.41 55.6769C145.104 56.215 144.414 57.4718 143.34 59.4471C142.266 61.4225 141.692 62.5367 141.616 62.7896L145.962 57.3326L146.693 56.3703L152.381 48.8333C152.432 48.7802 152.477 48.7225 152.516 48.6608C152.551 48.6076 152.591 48.5569 152.633 48.509L152.768 48.3745C152.843 48.2952 152.902 48.2641 152.94 48.2779C153.021 48.2821 153.102 48.2617 153.171 48.2193C153.215 48.1935 153.265 48.1799 153.316 48.1799C153.367 48.1799 153.417 48.1935 153.461 48.2193C153.836 48.2793 154.18 48.4612 154.441 48.7367C154.576 48.8626 154.685 49.0145 154.761 49.1834C154.837 49.3523 154.878 49.5347 154.882 49.7198C154.877 49.8936 154.831 50.0637 154.748 50.2165C154.67 50.3774 154.58 50.5319 154.479 50.6787C154.389 50.8098 154.272 50.9616 154.134 51.1409C154.043 51.2612 153.947 51.3764 153.844 51.4859C153.537 51.9481 153.002 52.6656 152.247 53.6418C151.491 54.618 150.96 55.332 150.653 55.7942C150.131 56.5416 148.78 58.295 146.6 61.0546C144.42 63.8141 143.087 65.448 142.602 65.9562C142.526 66.0355 142.257 66.3425 141.778 66.8806C141.298 67.4187 140.936 67.8223 140.681 68.0914C140.369 68.406 140.021 68.6838 139.646 68.9192C139.309 69.1648 138.91 69.3107 138.494 69.3401C138.261 69.3407 138.034 69.2736 137.839 69.1469C137.529 68.9885 137.271 68.7457 137.094 68.4465C136.917 68.1474 136.828 67.8042 136.838 67.4567C136.838 66.7668 137.134 65.7803 137.725 64.4971C138.031 63.8325 138.382 63.0886 138.78 62.2653C139.177 61.4478 139.556 60.6889 139.915 59.999C140.274 59.3092 140.743 58.4399 141.319 57.4016L142.699 54.9422C143.03 54.3397 143.529 53.4486 144.196 52.2689C144.862 51.0927 145.324 50.2889 145.576 49.8543C145.827 49.4197 146.31 48.6091 147.017 47.3914C147.725 46.1738 148.135 45.4632 148.266 45.2597C148.722 44.6054 149.12 43.913 149.456 43.1901C145.759 44.7582 141.907 45.9306 137.963 46.6878C137.551 46.7636 136.064 46.9557 133.503 47.2638C133.527 47.3949 133.579 47.6294 133.654 47.9744C133.723 48.2454 133.762 48.5229 133.772 48.8022C133.772 49.468 133.427 50.2234 132.695 51.072C131.833 51.9843 130.784 52.6986 129.619 53.1658C128.431 53.7283 127.138 54.0362 125.824 54.0695C125.606 54.0766 125.388 54.0639 125.172 54.0316C124.481 53.9651 123.819 53.7203 123.251 53.321C122.728 52.9787 122.334 52.4711 122.133 51.8791C122.058 51.6296 122.02 51.3705 122.02 51.1099C122.02 50.0107 122.68 48.9655 124 47.9744C125.321 46.9913 126.311 46.4946 126.98 46.4946C127.33 46.4912 127.671 46.6136 127.939 46.8395C128.21 47.0511 128.4 47.3495 128.477 47.6846C128.527 47.7419 128.559 47.8126 128.57 47.888C128.58 47.9634 128.568 48.0402 128.535 48.1089C128.483 48.2088 128.457 48.3204 128.46 48.4332C128.46 48.4987 128.415 48.5746 128.287 48.6643L128.035 48.8367C127.938 48.8913 127.835 48.9364 127.728 48.9713L127.383 49.1058C126.759 49.4099 126.167 49.7775 125.617 50.2027C125.13 50.5146 124.749 50.9668 124.524 51.4997C124.777 51.5466 125.033 51.5731 125.29 51.579C126.675 51.5386 128.022 51.1173 129.184 50.3614C130.543 49.5404 131.233 48.7356 131.254 47.9468C131.202 47.7398 130.709 47.4466 129.774 47.0603C128.839 46.674 128.37 46.1634 128.37 45.5253C128.37 44.7802 128.908 44.4974 129.984 44.6768C130.569 44.7702 131.162 44.8095 131.754 44.794H132.561C135.499 44.6086 138.407 44.0996 141.233 43.2763C144.085 42.5419 146.849 41.501 149.477 40.1718C149.964 39.9231 150.433 39.6407 150.881 39.3267C151.277 39.0439 151.605 38.8093 151.86 38.6161C152.158 38.383 152.424 38.1116 152.65 37.809C152.857 37.5503 153.049 37.2809 153.226 37.0018L153.882 35.9049C154.201 35.3668 154.464 34.931 154.668 34.5976L167.241 14.8738C169.497 11.4911 170.992 9.50423 171.726 8.91323L171.881 8.7994L171.919 8.76146L171.995 8.72351L172.816 8.70972Z" fill="white"/>
<path d="M152.178 49.2335L152.254 49.1541C152.403 48.8226 152.597 48.5128 152.83 48.2331C153.101 47.9675 153.413 47.7463 153.754 47.5777C155.392 46.8772 157.13 46.4361 158.904 46.2704H159.135C159.547 46.2629 159.951 46.3834 160.291 46.6154C160.44 46.7084 160.569 46.8316 160.668 46.9771C160.767 47.1227 160.835 47.2873 160.867 47.4605C161.097 47.4099 163.16 46.8465 167.055 45.7703C167.307 45.6727 167.58 45.639 167.848 45.6721C168.116 45.7052 168.373 45.8041 168.593 45.96C169.387 46.6016 169.489 47.2684 168.9 47.9606C168.235 48.7057 167.866 49.2921 167.786 49.7302H168.331C170.049 49.7302 172.253 49.3576 174.944 48.6126L176.558 48.1538C176.684 48.122 176.815 48.1093 176.945 48.1159C177.152 48.1126 177.358 48.1555 177.547 48.2414C177.736 48.3273 177.904 48.454 178.038 48.6126C178.317 48.9034 178.476 49.2891 178.483 49.6922C178.482 49.8524 178.441 50.0099 178.366 50.151C178.262 50.358 177.803 50.5753 176.986 50.8064C175.321 51.2663 174.218 51.5607 173.678 51.6894C172.511 51.949 171.331 52.1414 170.142 52.2655C169.835 52.2966 169.526 52.3092 169.218 52.3034C168.204 52.3421 167.201 52.0818 166.334 51.5549C165.568 51.0559 165.197 50.2418 165.22 49.1127C164.937 49.1127 163.809 49.3944 161.836 49.9578C161.556 50.036 160.428 50.3062 158.452 50.7685C157.253 51.0567 156.033 51.2494 154.803 51.3445C154.005 51.3445 153.43 51.2157 153.078 50.9582C152.929 50.8619 152.793 50.7459 152.674 50.6132C152.58 50.5112 152.502 50.3948 152.443 50.2683C152.405 50.1786 152.361 50.0717 152.309 49.9406C152.257 49.8095 152.219 49.7233 152.195 49.675L152.178 49.2335Z" fill="white"/>
<path d="M176.362 53.3452C176.086 52.4201 175.919 51.4664 175.862 50.5029C175.861 50.049 175.912 49.5966 176.013 49.1542C176.273 47.9353 176.784 46.7841 177.514 45.7737C177.98 45.041 178.535 44.3689 179.166 43.7731L179.897 43.0625C180.284 42.69 180.615 42.3726 180.898 42.1208C181.181 41.869 181.512 41.5758 181.898 41.255C182.238 40.9665 182.597 40.7025 182.974 40.4651C183.243 40.2882 183.541 40.1587 183.854 40.0822C184.165 39.9897 184.497 39.9994 184.802 40.11C185.107 40.2205 185.368 40.426 185.547 40.6962C185.797 41.014 185.932 41.4065 185.93 41.8104C185.93 42.2484 185.61 43.0418 184.968 44.1974C184.654 44.7356 184.308 45.255 183.933 45.753C183.474 46.3808 183.164 46.8224 183.012 47.0811C182.55 47.7709 182.05 48.0159 181.512 47.8089C181.317 47.7607 181.139 47.6619 180.994 47.5226L180.822 47.3501C180.767 47.2933 180.721 47.2281 180.687 47.157C180.646 47.0811 180.615 47.0155 180.591 46.9638C180.567 46.912 180.532 46.8431 180.494 46.7534C180.471 46.6911 180.439 46.6328 180.398 46.5809C179.742 47.2851 179.22 48.1035 178.859 48.9955C178.532 49.7586 178.362 50.5798 178.359 51.4101C178.341 51.7166 178.408 52.0221 178.552 52.2931C178.897 52.1655 179.642 51.8413 180.822 51.3135C182.002 50.7857 182.891 50.3994 183.492 50.1407C184.092 49.882 184.871 49.5784 185.837 49.2197C186.803 48.861 187.665 48.5781 188.435 48.3746C189.073 48.1362 189.75 48.0192 190.432 48.0297C190.628 48.0396 190.82 48.093 190.993 48.186C191.166 48.2791 191.316 48.4095 191.432 48.5678C191.672 48.8602 191.807 49.2245 191.815 49.6026C191.838 49.821 191.774 50.0397 191.638 50.2123C191.503 50.3848 191.305 50.4977 191.087 50.527C189.286 50.9044 187.523 51.4447 185.82 52.1414C185.178 52.3966 184.319 52.7622 183.243 53.2383C182.167 53.7143 181.398 54.0408 180.936 54.2179C180.86 54.242 180.615 54.3524 180.204 54.5456C179.929 54.6806 179.647 54.8015 179.359 54.9078C179.387 55.1124 179.4 55.3188 179.397 55.5252C179.435 56.0833 179.256 56.6343 178.897 57.0637C178.398 57.5102 177.788 57.8151 177.131 57.9467C176.021 58.3011 174.869 58.5075 173.706 58.5607C173.337 58.5851 172.967 58.5188 172.629 58.3675C171.86 57.9088 171.543 57.3327 171.671 56.6014C171.746 56.1921 172.137 55.7563 172.843 55.2941C173.552 54.829 174.29 54.4118 175.054 54.0454C175.511 53.8541 175.949 53.6197 176.362 53.3452Z" fill="white"/>
<path d="M185.434 26.933C185.434 26.9088 185.582 26.4397 185.875 25.5291C186.292 24.3741 186.841 23.271 187.51 22.2418C187.893 21.6002 188.331 21.2794 188.818 21.2794C189.304 21.2794 189.69 21.576 190.049 22.1659C190.304 22.6258 190.24 23.1513 189.856 23.7423C188.573 25.536 187.932 27.1123 187.934 28.4714C187.934 30.1363 188.882 31.4563 190.777 32.4313C194.366 34.2526 199.981 35.1621 207.62 35.1598C209.566 35.1598 211.898 35.0828 214.616 34.9287C216.915 34.7999 219.658 34.5573 222.843 34.2009C223.532 34.1227 224.777 33.9422 226.575 33.6593C228.373 33.3765 229.731 33.1948 230.649 33.1143C230.624 32.8349 230.611 32.4624 230.611 32.0002C230.6 30.7503 230.947 29.5236 231.611 28.4645C233.221 25.8752 236.424 23.6514 241.221 21.7934C246.018 19.9353 250.502 19.0062 254.674 19.0062C257.187 19.0062 259.11 19.4029 260.441 20.1963C261.697 20.9942 262.326 22.0199 262.328 23.2732C262.332 23.4786 262.318 23.684 262.287 23.8871C262.107 24.991 261.287 26.0557 259.827 27.0813C258.137 28.2564 255.561 29.4602 252.1 30.6928C249.946 31.4609 247.978 32.0761 246.199 32.5383C244.419 33.0005 242.29 33.4811 239.814 33.9801C237.342 34.4814 235.439 34.885 234.105 35.1909C235.002 36.5246 236.508 37.7894 238.624 38.9852C240.535 40.0982 242.52 41.0812 244.563 41.9276C246.409 42.6727 247.395 43.1176 247.523 43.2728C247.732 43.5148 247.853 43.8196 247.868 44.1387C247.884 44.297 247.865 44.457 247.811 44.6069C247.758 44.7568 247.671 44.8926 247.558 45.0045L244.367 46.5015C242.987 47.0902 241.147 47.956 238.848 49.0989L234.709 51.1686C234.345 51.3479 233.82 51.6296 233.132 52.0137C232.445 52.3977 231.944 52.6668 231.632 52.8208C229.914 53.6694 227.818 54.8422 225.343 56.3392C223.415 57.4761 221.548 58.715 219.752 60.0508C216.829 62.2791 215.406 64.0349 215.481 65.3181C217.02 66.1643 219.263 66.5874 222.211 66.5874C225.776 66.5874 230.26 65.9206 235.664 64.5868C241.068 63.253 245.644 61.9158 249.393 60.5751C253.146 59.2436 256.51 57.949 259.486 56.6911C266.405 53.7982 271.004 51.5169 273.283 49.8474C273.525 49.6911 273.755 49.5182 273.973 49.33L274.473 48.885C274.585 48.7883 274.708 48.705 274.839 48.6367C274.971 48.5724 275.116 48.5394 275.263 48.5401C275.296 48.542 275.329 48.549 275.36 48.5608C275.39 48.572 275.421 48.5779 275.453 48.578C275.798 48.6494 276.109 48.8325 276.339 49.0989C276.471 49.2261 276.576 49.3782 276.648 49.5464C276.721 49.7146 276.759 49.8955 276.76 50.0785C276.746 50.2542 276.695 50.4249 276.609 50.5787C276.07 51.602 273.782 53.0887 269.744 55.0388C265.706 56.9889 261.983 58.6423 258.575 59.9991C256.372 60.8683 254.072 61.7203 251.676 62.5551C249.28 63.3898 246.308 64.3511 242.759 65.4388C239.246 66.5186 235.677 67.4041 232.066 68.0914C228.959 68.7213 225.799 69.062 222.629 69.109C218.91 69.109 216.151 68.4432 214.35 67.1117C213.914 66.8066 213.562 66.3961 213.327 65.9185C213.091 65.4409 212.981 64.9116 213.005 64.3798C213.02 63.6332 213.232 62.9038 213.619 62.2653C214.144 61.4301 214.777 60.668 215.502 59.9991C216.25 59.2542 217.057 58.5723 217.917 57.9605C222.042 54.971 227.437 51.7929 234.101 48.4263C239.689 45.6851 242.778 44.2111 243.367 44.0041C243.291 43.9524 242.777 43.6902 241.832 43.2142C240.886 42.7382 239.762 42.1518 238.465 41.4481C237.356 40.8607 236.296 40.1847 235.295 39.4268C234.536 38.8343 233.817 38.1925 233.142 37.5054C232.372 36.7351 231.897 36.1073 231.718 35.622C230.948 35.6979 229.846 35.8451 228.413 36.0636C226.975 36.2809 225.964 36.4292 225.374 36.5051C219.753 37.2462 214.09 37.6322 208.421 37.6607C201.908 37.6607 196.691 37.0191 192.771 35.7359C189.747 34.7631 187.619 33.3029 186.389 31.3551C186.137 30.9227 185.943 30.4587 185.813 29.9754C185.708 29.5837 185.579 29.1989 185.427 28.8233L185.434 26.933ZM233.07 32.7004C236.25 32.3141 240.653 31.3137 246.278 29.6994C251.903 28.0851 255.728 26.5604 257.754 25.1255C258.24 24.7805 258.575 24.5632 258.754 24.4356C259.028 24.2072 259.261 23.9343 259.444 23.6284C259.701 23.2576 259.829 22.813 259.81 22.3625C258.775 21.7945 257.257 21.5105 255.257 21.5105C252.101 21.5634 248.967 22.0485 245.943 22.9524C242.747 23.8192 239.716 25.2098 236.975 27.0675C234.399 28.8474 233.098 30.725 233.07 32.7004Z" fill="white"/>
<path d="M277.333 49.2715L279.716 48.1953C281.096 47.6295 282.21 47.3478 283.059 47.3501C283.559 47.3231 284.053 47.4653 284.463 47.7537C284.869 48.0925 285.218 48.4943 285.497 48.9438C285.773 49.3861 286.102 49.7928 286.477 50.1545C287.015 50.6167 287.812 50.8444 288.861 50.8444C290.838 50.8444 293.684 50.0499 297.398 48.4609C298.012 48.2056 298.45 48.1159 298.705 48.1918C299.053 48.2873 299.358 48.4976 299.571 48.7886C299.775 49.046 299.889 49.3636 299.895 49.6923C299.895 49.8996 299.828 50.1013 299.705 50.2683C299.356 50.5429 298.966 50.7627 298.55 50.9203C294.887 52.5116 291.875 53.3061 289.516 53.3038C287.596 53.3038 286.101 52.8048 285.032 51.8068C284.419 51.2377 283.899 50.5753 283.493 49.8441C282.238 49.9728 280.188 50.8065 277.343 52.3449C276.883 52.6002 276.408 52.8566 275.918 53.1141L275.228 53.497C274.908 53.6764 274.67 53.804 274.518 53.8799C274.372 53.9405 274.214 53.9677 274.056 53.9592C273.859 53.9553 273.665 53.9103 273.487 53.8271C273.309 53.744 273.15 53.6245 273.021 53.4763C272.878 53.3397 272.763 53.1761 272.684 52.9949C272.604 52.8137 272.562 52.6186 272.559 52.4208C272.566 52.2359 272.606 52.0538 272.676 51.8827C273.012 51.2664 273.53 50.3465 274.232 49.1231C274.933 47.8998 275.453 46.9799 275.791 46.3636C276.099 45.7749 276.406 45.4541 276.712 45.4012C276.786 45.3772 276.864 45.3644 276.943 45.3633C277.217 45.37 277.485 45.4524 277.716 45.6016C277.946 45.7507 278.131 45.9607 278.25 46.2084C278.378 46.4157 278.445 46.6547 278.443 46.8983C278.382 47.3378 278.21 47.7545 277.943 48.109C277.693 48.4701 277.488 48.8605 277.333 49.2715Z" fill="white"/>
<path d="M299.661 49.2715L302.048 48.1953C303.428 47.6295 304.542 47.3478 305.39 47.3501C305.89 47.3231 306.385 47.4653 306.794 47.7537C307.201 48.0925 307.55 48.4943 307.829 48.9438C308.105 49.3861 308.434 49.7928 308.809 50.1545C309.347 50.6167 310.144 50.8444 311.192 50.8444C313.165 50.8444 316.011 50.0499 319.729 48.4609C320.343 48.2056 320.764 48.1159 321.037 48.1918C321.384 48.2873 321.69 48.4976 321.903 48.7886C322.107 49.046 322.221 49.3636 322.227 49.6923C322.226 49.8996 322.16 50.1013 322.037 50.2683C321.687 50.5429 321.298 50.7627 320.882 50.9203C317.216 52.5116 314.205 53.3061 311.848 53.3038C309.925 53.3038 308.43 52.8048 307.363 51.8068C306.75 51.2377 306.231 50.5753 305.825 49.8441C304.569 49.9728 302.518 50.8065 299.671 52.3449C299.212 52.6002 298.736 52.8554 298.25 53.1141L297.56 53.497C297.239 53.6764 297.001 53.804 296.85 53.8799C296.703 53.9402 296.545 53.9673 296.387 53.9592C296.191 53.9553 295.997 53.9103 295.819 53.8271C295.641 53.744 295.482 53.6245 295.352 53.4763C295.133 53.2818 294.981 53.0224 294.919 52.7359C294.857 52.4493 294.888 52.1505 295.008 51.8827C295.339 51.2664 295.857 50.3465 296.563 49.1231C297.269 47.8998 297.789 46.9799 298.122 46.3636C298.431 45.7749 298.737 45.4541 299.043 45.4012C299.118 45.3769 299.196 45.3641 299.274 45.3633C299.549 45.37 299.817 45.4524 300.047 45.6016C300.278 45.7507 300.463 45.9607 300.582 46.2084C300.71 46.4157 300.777 46.6547 300.775 46.8983C300.714 47.3378 300.542 47.7545 300.275 48.109C300.025 48.4711 299.819 48.8613 299.661 49.2715Z" fill="white"/>
<path d="M322.461 49.5784C322.744 49.7854 324.052 49.8877 326.383 49.8854H327.653C330.948 49.7634 334.227 49.3653 337.456 48.6954C337.711 48.6436 338.091 48.5609 338.591 48.4436C339.091 48.3263 339.467 48.247 339.726 48.1952C340.093 48.0554 340.486 47.9965 340.878 48.0227C341.221 48.0951 341.532 48.2766 341.764 48.5402C342.033 48.7987 342.197 49.1477 342.223 49.5198C342.241 49.6933 342.206 49.8681 342.125 50.0222C342.043 50.1762 341.918 50.3027 341.764 50.3856C341.454 50.5408 340.385 50.7892 338.591 51.1376C336.797 51.486 335.549 51.6929 334.879 51.7688C332.169 52.18 329.432 52.399 326.69 52.4242C323.434 52.4242 321.269 51.9884 320.195 51.1169C319.526 50.5788 319.195 50.0027 319.195 49.3922C319.195 49.0093 319.564 48.4712 320.309 47.7778C322.229 45.8708 324.538 44.3991 327.077 43.4626C327.902 43.1586 328.774 43.0021 329.653 43.0004C330.299 42.9628 330.938 43.1532 331.457 43.5385C332.175 44.1272 332.405 44.7815 332.147 45.5012C332.091 45.6618 332.007 45.8112 331.899 45.9428C331.782 46.0842 331.661 46.2187 331.533 46.3463C331.381 46.4912 331.213 46.6195 331.033 46.7292C330.826 46.8603 330.64 46.9672 330.474 47.0742C330.309 47.1811 330.092 47.2673 329.822 47.3812L329.188 47.6502C329.033 47.7158 328.808 47.7985 328.498 47.902C328.187 48.0055 328.005 48.0745 327.901 48.1124C327.798 48.1504 327.601 48.2159 327.304 48.3056C327.147 48.3585 326.987 48.4034 326.825 48.4401C326.416 48.5689 325.685 48.7483 324.635 48.9782L322.91 49.3611C322.74 49.3818 322.583 49.4582 322.461 49.5784Z" fill="white"/>
</g>
<defs>
<clipPath id="clip0_161_116">
<rect width="342.227" height="98.1393" fill="white"/>
</clipPath>
</defs>
</svg>
