<svg width="1402" height="259" viewBox="0 0 1402 259" fill="none" xmlns="http://www.w3.org/2000/svg">
<path d="M155.06 181.246C153.326 183.286 151.782 185.19 150.407 186.982L125.049 216.026L124.865 216.236L124.701 216.462C123.462 218.181 122.046 219.767 120.479 221.192L120.472 221.199L120.464 221.206C119.271 222.299 118.181 223.5 117.207 224.791L99.5557 244.071C98.5215 245.007 97.5503 246.012 96.6494 247.078C95.5889 248.302 94.8528 249.08 94.3115 249.574L94.2373 249.641L94.166 249.71L92.1973 251.628C91.6906 251.803 91.1913 251.999 90.7002 252.213C90.032 251.711 89.6267 251.306 89.4004 251.022C89.391 251.01 89.3834 250.998 89.375 250.987C89.5105 250.304 89.7673 249.651 90.1338 249.056L98.2871 238.188C99.428 236.951 101.013 235.245 103.037 233.06L103.038 233.061C105.063 230.876 106.724 229.045 107.883 227.667L137.659 197.437C137.929 197.167 138.806 196.363 140.385 194.956L142.2 193.347C144.909 190.954 146.921 189.073 148.208 187.738L148.289 187.653L148.368 187.565C149.862 185.887 151.474 184.318 153.191 182.869L153.208 182.854L153.226 182.839C153.888 182.271 154.499 181.739 155.06 181.246ZM169.508 166.983C169.02 167.365 168.551 167.77 168.104 168.199L167.676 168.622L166.556 169.742C165.918 170.308 165.38 170.779 164.908 171.193C164.48 171.569 163.96 172.026 163.587 172.399L163.552 172.434L163.518 172.469L161.955 174.082C163.61 172.057 165.673 169.443 168.1 166.314C173.056 159.921 175.799 156.478 176.57 155.623L176.731 155.446L176.877 155.254L185.707 143.74L185.753 143.68L185.797 143.62C189.345 138.744 192.637 134.073 195.674 129.608L204.241 137.047C205.694 136.035 207.056 134.9 208.316 133.654C208.982 133.035 209.515 132.552 209.919 132.195C210.125 132.013 210.289 131.871 210.413 131.766C210.475 131.714 210.523 131.675 210.558 131.647C210.588 131.622 210.602 131.61 210.604 131.609L210.676 131.554L210.746 131.496L216.645 126.682L169.508 166.983Z" stroke="white" stroke-width="12"/>
<path d="M426.863 87.51L426.967 87.5159C427.023 87.522 427.079 87.5332 427.133 87.5481H426.335C426.378 87.5341 426.418 87.521 426.455 87.51H426.863Z" stroke="white" stroke-width="12"/>
<path d="M437.195 171.089C437.176 171.073 437.157 171.057 437.138 171.042C437.074 170.967 437.018 170.878 436.972 170.773C436.916 170.639 436.888 170.501 436.884 170.368C436.903 170.083 437.013 169.811 437.197 169.594L437.261 169.52L437.321 169.443C437.673 169.001 437.973 168.646 438.215 168.366C438.307 168.259 438.479 168.061 438.562 167.964C438.581 167.942 438.613 167.903 438.655 167.853L438.949 167.558L437.195 171.089ZM467.183 153.104C467.53 153.102 467.876 153.127 468.21 153.179C469.561 153.42 470.172 153.796 470.417 154C470.598 154.151 470.796 154.375 470.937 154.964L470.94 154.979V154.985C470.94 155.293 470.759 156.686 467.805 159.078H467.804C466.13 160.433 464.852 161.344 463.938 161.898C463.907 161.916 463.877 161.933 463.848 161.95C463.651 161.654 463.544 161.308 463.542 160.956L463.509 153.529C464.72 153.307 465.947 153.165 467.183 153.104Z" stroke="white" stroke-width="12"/>
<mask id="path-4-inside-1_4_16" fill="white">
<path d="M706.224 0C706.446 0.175646 706.68 0.331815 706.93 0.46682C707.184 0.596002 707.422 0.757664 707.64 0.947787L708.357 1.49945C708.636 1.68437 708.895 1.89258 709.137 2.1219C709.309 2.2775 709.506 2.51798 709.773 2.82921C709.986 3.0742 710.17 3.33958 710.326 3.6214C710.449 3.87746 710.552 4.14223 710.638 4.41355C710.749 4.74446 710.831 5.08558 710.876 5.43212C710.938 5.8254 710.966 6.22279 710.962 6.62018C711.011 7.29808 710.819 7.97064 710.413 8.51608C709.838 9.10662 709.231 9.65944 708.587 10.1708C707.623 10.9984 706.778 11.9499 706.068 13.0001C695.551 27.1461 686.403 40.4437 678.63 52.8923C676.423 56.4569 672.797 62.1155 667.751 69.8676C662.702 77.6193 658.218 84.655 654.293 90.9735C650.342 97.2825 646.892 102.941 643.951 107.949C642.696 110.156 640.067 114.465 636.067 120.878C632.068 127.291 629.073 132.285 627.084 135.859C625.291 139.112 622.424 143.974 618.482 150.443C614.54 156.913 611.779 161.51 610.204 164.236C605.581 172.12 600.113 181.579 593.804 192.613C592.549 194.82 589.718 199.974 585.313 208.075C580.907 216.176 578.552 220.745 578.241 221.782L596.068 199.403L599.067 195.457L622.399 164.547C622.608 164.329 622.793 164.093 622.953 163.84C623.097 163.622 623.261 163.414 623.433 163.217L623.987 162.666C624.294 162.34 624.536 162.213 624.692 162.27C625.024 162.287 625.357 162.203 625.64 162.029C625.82 161.923 626.025 161.868 626.235 161.868C626.444 161.868 626.649 161.923 626.829 162.029C628.368 162.275 629.779 163.021 630.849 164.151C631.403 164.667 631.85 165.29 632.162 165.983C632.474 166.676 632.642 167.424 632.658 168.183C632.638 168.896 632.449 169.593 632.109 170.22C631.789 170.88 631.42 171.513 631.005 172.115C630.636 172.653 630.156 173.275 629.59 174.011C629.217 174.504 628.823 174.976 628.4 175.426C627.141 177.321 624.946 180.264 621.849 184.267C618.748 188.27 616.57 191.198 615.311 193.094C613.17 196.159 607.628 203.35 598.685 214.667C589.743 225.984 584.275 232.684 582.285 234.768C581.974 235.094 580.87 236.353 578.905 238.559C576.936 240.766 575.451 242.421 574.405 243.525C573.125 244.815 571.698 245.954 570.16 246.92C568.777 247.927 567.141 248.525 565.434 248.646C564.478 248.648 563.547 248.373 562.747 247.853C561.476 247.204 560.417 246.208 559.691 244.981C558.965 243.755 558.6 242.347 558.641 240.922C558.641 238.093 559.855 234.047 562.28 228.785C563.535 226.059 564.975 223.008 566.607 219.632C568.236 216.279 569.79 213.167 571.263 210.338C572.736 207.509 574.66 203.944 577.022 199.686L582.683 189.6C584.041 187.129 586.088 183.475 588.824 178.637C591.556 173.813 593.451 170.517 594.485 168.734C595.514 166.952 597.496 163.628 600.396 158.634C603.3 153.641 604.982 150.726 605.519 149.892C607.39 147.209 609.022 144.369 610.401 141.404C595.235 147.835 579.434 152.643 563.256 155.749C561.566 156.059 555.466 156.847 544.961 158.111C545.059 158.648 545.273 159.61 545.58 161.025C545.863 162.136 546.023 163.274 546.064 164.42C546.064 167.15 544.649 170.248 541.646 173.728C538.11 177.469 533.807 180.399 529.029 182.315C524.155 184.622 518.851 185.884 513.461 186.021C512.567 186.05 511.673 185.998 510.787 185.865C507.952 185.593 505.237 184.589 502.907 182.951C500.761 181.548 499.145 179.466 498.321 177.038C498.013 176.015 497.857 174.952 497.857 173.884C497.857 169.376 500.564 165.089 505.979 161.025C511.398 156.993 515.459 154.956 518.203 154.956C519.639 154.942 521.038 155.444 522.137 156.371C523.249 157.238 524.028 158.462 524.344 159.836C524.549 160.071 524.68 160.361 524.725 160.671C524.767 160.98 524.717 161.295 524.582 161.576C524.369 161.986 524.262 162.444 524.274 162.906C524.274 163.175 524.09 163.486 523.565 163.854L522.531 164.561C522.133 164.785 521.71 164.97 521.272 165.113L519.856 165.665C517.297 166.912 514.868 168.419 512.612 170.163C510.614 171.442 509.052 173.297 508.129 175.482C509.166 175.674 510.217 175.783 511.271 175.807C516.952 175.642 522.478 173.914 527.244 170.814C532.819 167.447 535.649 164.147 535.735 160.912C535.522 160.063 533.5 158.86 529.664 157.276C525.829 155.692 523.905 153.598 523.905 150.981C523.905 147.925 526.112 146.766 530.526 147.501C532.925 147.884 535.358 148.046 537.786 147.982H541.097C553.149 147.222 565.077 145.134 576.67 141.758C588.369 138.746 599.707 134.477 610.487 129.026C612.485 128.006 614.408 126.848 616.246 125.561C617.87 124.401 619.216 123.439 620.262 122.646C621.484 121.69 622.576 120.577 623.503 119.336C624.352 118.276 625.139 117.171 625.865 116.026L628.556 111.528C629.865 109.321 630.944 107.534 631.781 106.166L683.355 25.279C692.61 11.4065 698.742 3.25829 701.753 0.834598L702.389 0.367781L702.545 0.212189L702.857 0.0565535L706.224 0Z"/>
</mask>
<path d="M706.224 0C706.446 0.175646 706.68 0.331815 706.93 0.46682C707.184 0.596002 707.422 0.757664 707.64 0.947787L708.357 1.49945C708.636 1.68437 708.895 1.89258 709.137 2.1219C709.309 2.2775 709.506 2.51798 709.773 2.82921C709.986 3.0742 710.17 3.33958 710.326 3.6214C710.449 3.87746 710.552 4.14223 710.638 4.41355C710.749 4.74446 710.831 5.08558 710.876 5.43212C710.938 5.8254 710.966 6.22279 710.962 6.62018C711.011 7.29808 710.819 7.97064 710.413 8.51608C709.838 9.10662 709.231 9.65944 708.587 10.1708C707.623 10.9984 706.778 11.9499 706.068 13.0001C695.551 27.1461 686.403 40.4437 678.63 52.8923C676.423 56.4569 672.797 62.1155 667.751 69.8676C662.702 77.6193 658.218 84.655 654.293 90.9735C650.342 97.2825 646.892 102.941 643.951 107.949C642.696 110.156 640.067 114.465 636.067 120.878C632.068 127.291 629.073 132.285 627.084 135.859C625.291 139.112 622.424 143.974 618.482 150.443C614.54 156.913 611.779 161.51 610.204 164.236C605.581 172.12 600.113 181.579 593.804 192.613C592.549 194.82 589.718 199.974 585.313 208.075C580.907 216.176 578.552 220.745 578.241 221.782L596.068 199.403L599.067 195.457L622.399 164.547C622.608 164.329 622.793 164.093 622.953 163.84C623.097 163.622 623.261 163.414 623.433 163.217L623.987 162.666C624.294 162.34 624.536 162.213 624.692 162.27C625.024 162.287 625.357 162.203 625.64 162.029C625.82 161.923 626.025 161.868 626.235 161.868C626.444 161.868 626.649 161.923 626.829 162.029C628.368 162.275 629.779 163.021 630.849 164.151C631.403 164.667 631.85 165.29 632.162 165.983C632.474 166.676 632.642 167.424 632.658 168.183C632.638 168.896 632.449 169.593 632.109 170.22C631.789 170.88 631.42 171.513 631.005 172.115C630.636 172.653 630.156 173.275 629.59 174.011C629.217 174.504 628.823 174.976 628.4 175.426C627.141 177.321 624.946 180.264 621.849 184.267C618.748 188.27 616.57 191.198 615.311 193.094C613.17 196.159 607.628 203.35 598.685 214.667C589.743 225.984 584.275 232.684 582.285 234.768C581.974 235.094 580.87 236.353 578.905 238.559C576.936 240.766 575.451 242.421 574.405 243.525C573.125 244.815 571.698 245.954 570.16 246.92C568.777 247.927 567.141 248.525 565.434 248.646C564.478 248.648 563.547 248.373 562.747 247.853C561.476 247.204 560.417 246.208 559.691 244.981C558.965 243.755 558.6 242.347 558.641 240.922C558.641 238.093 559.855 234.047 562.28 228.785C563.535 226.059 564.975 223.008 566.607 219.632C568.236 216.279 569.79 213.167 571.263 210.338C572.736 207.509 574.66 203.944 577.022 199.686L582.683 189.6C584.041 187.129 586.088 183.475 588.824 178.637C591.556 173.813 593.451 170.517 594.485 168.734C595.514 166.952 597.496 163.628 600.396 158.634C603.3 153.641 604.982 150.726 605.519 149.892C607.39 147.209 609.022 144.369 610.401 141.404C595.235 147.835 579.434 152.643 563.256 155.749C561.566 156.059 555.466 156.847 544.961 158.111C545.059 158.648 545.273 159.61 545.58 161.025C545.863 162.136 546.023 163.274 546.064 164.42C546.064 167.15 544.649 170.248 541.646 173.728C538.11 177.469 533.807 180.399 529.029 182.315C524.155 184.622 518.851 185.884 513.461 186.021C512.567 186.05 511.673 185.998 510.787 185.865C507.952 185.593 505.237 184.589 502.907 182.951C500.761 181.548 499.145 179.466 498.321 177.038C498.013 176.015 497.857 174.952 497.857 173.884C497.857 169.376 500.564 165.089 505.979 161.025C511.398 156.993 515.459 154.956 518.203 154.956C519.639 154.942 521.038 155.444 522.137 156.371C523.249 157.238 524.028 158.462 524.344 159.836C524.549 160.071 524.68 160.361 524.725 160.671C524.767 160.98 524.717 161.295 524.582 161.576C524.369 161.986 524.262 162.444 524.274 162.906C524.274 163.175 524.09 163.486 523.565 163.854L522.531 164.561C522.133 164.785 521.71 164.97 521.272 165.113L519.856 165.665C517.297 166.912 514.868 168.419 512.612 170.163C510.614 171.442 509.052 173.297 508.129 175.482C509.166 175.674 510.217 175.783 511.271 175.807C516.952 175.642 522.478 173.914 527.244 170.814C532.819 167.447 535.649 164.147 535.735 160.912C535.522 160.063 533.5 158.86 529.664 157.276C525.829 155.692 523.905 153.598 523.905 150.981C523.905 147.925 526.112 146.766 530.526 147.501C532.925 147.884 535.358 148.046 537.786 147.982H541.097C553.149 147.222 565.077 145.134 576.67 141.758C588.369 138.746 599.707 134.477 610.487 129.026C612.485 128.006 614.408 126.848 616.246 125.561C617.87 124.401 619.216 123.439 620.262 122.646C621.484 121.69 622.576 120.577 623.503 119.336C624.352 118.276 625.139 117.171 625.865 116.026L628.556 111.528C629.865 109.321 630.944 107.534 631.781 106.166L683.355 25.279C692.61 11.4065 698.742 3.25829 701.753 0.834598L702.389 0.367781L702.545 0.212189L702.857 0.0565535L706.224 0Z" stroke="white" stroke-width="24" mask="url(#path-4-inside-1_4_16)"/>
<path d="M650.214 160.035C650.626 160.028 651.026 160.14 651.371 160.35L652.259 165.154C650.477 165.575 648.372 166.071 645.937 166.641L645.918 166.646L645.9 166.65C641.368 167.739 636.759 168.471 632.111 168.843C630.889 168.831 630.014 168.728 629.421 168.595C628.983 168.497 628.791 168.403 628.757 168.386L628.66 168.316L628.515 168.222L628.394 168.138C628.279 168.053 628.173 167.956 628.077 167.85C628.012 167.693 627.94 167.521 627.863 167.33C628.1 166.927 628.365 166.539 628.655 166.168C629.225 165.647 629.864 165.202 630.557 164.845C636.578 162.291 642.956 160.67 649.468 160.036H650.159L650.214 160.035ZM685.11 157.538C685.132 157.541 685.154 157.546 685.175 157.55C683.622 159.335 682.163 161.247 681.116 163.225L681.188 159.693H677.216C679.362 159.101 681.688 158.46 684.19 157.769L684.48 157.69L684.759 157.581C684.868 157.539 684.991 157.524 685.11 157.538Z" stroke="white" stroke-width="12"/>
<path d="M727.119 190.273C727.195 190.822 727.229 191.368 727.221 191.904L727.217 192.151L727.234 192.399C727.276 193.021 727.114 193.634 726.78 194.155C725.609 195.093 724.227 195.742 722.746 196.039L722.418 196.104L722.1 196.206C718.049 197.499 713.845 198.252 709.601 198.446L709.54 198.449L709.48 198.453C709.044 198.481 708.605 198.422 708.192 198.281C707.83 198.039 707.621 197.848 707.506 197.726C707.865 197.348 708.521 196.783 709.621 196.063L709.625 196.06C712.29 194.313 715.06 192.746 717.924 191.369C720.076 190.453 722.141 189.344 724.091 188.048L726.587 186.388L727.119 190.273ZM753.346 134.414L753.348 134.415C753.388 134.429 753.422 134.455 753.446 134.491L753.581 134.695L753.732 134.887C753.921 135.127 754.02 135.419 754.019 135.716V135.747C754.019 135.448 754.06 135.826 753.468 137.293C752.943 138.595 752.095 140.336 750.858 142.565C749.698 144.547 748.421 146.464 747.035 148.305L746.984 148.374C745.402 150.537 744.1 152.362 743.255 153.701C743.255 153.699 743.254 153.698 743.253 153.697C742.96 152.969 742.558 152.254 742.034 151.59L738.048 146.547L739.452 145.184L739.451 145.183C741.05 143.645 742.313 142.438 743.365 141.502C744.519 140.476 745.813 139.33 747.314 138.083L747.361 138.044C748.543 137.041 749.787 136.127 751.089 135.307L751.14 135.275L751.189 135.243C751.716 134.896 752.306 134.64 752.927 134.488L753.071 134.453L753.213 134.41C753.258 134.396 753.304 134.398 753.346 134.414Z" stroke="white" stroke-width="12"/>
<mask id="path-7-inside-2_4_16" fill="white">
<path d="M757.984 74.7338C757.984 74.6346 758.591 72.7108 759.793 68.9764C761.503 64.2398 763.755 59.7159 766.5 55.4952C768.071 52.864 769.868 51.5484 771.865 51.5484C773.859 51.5484 775.442 52.7647 776.915 55.1839C777.961 57.07 777.698 59.225 776.123 61.6487C770.86 69.0047 768.231 75.4691 768.239 81.0428C768.239 87.8706 772.128 93.2839 779.901 97.2824C794.623 104.752 817.656 108.481 848.992 108.472C856.974 108.472 866.54 108.156 877.69 107.524C887.12 106.996 898.372 106.001 911.437 104.54C914.263 104.219 919.37 103.479 926.746 102.318C934.121 101.159 939.692 100.414 943.458 100.083C943.355 98.9376 943.302 97.41 943.302 95.5145C943.257 90.3886 944.68 85.3579 947.404 81.0145C954.008 70.3958 967.147 61.276 986.824 53.6563C1006.5 46.0362 1024.9 42.226 1042.01 42.226C1052.32 42.226 1060.21 43.8528 1065.67 47.1066C1070.82 50.3788 1073.4 54.5852 1073.41 59.725C1073.42 60.5673 1073.37 61.4097 1073.24 62.2426C1072.5 66.7697 1069.14 71.136 1063.15 75.342C1056.21 80.1611 1045.65 85.0979 1031.45 90.1528C1022.61 93.3028 1014.54 95.8257 1007.24 97.7212C999.943 99.6167 991.21 101.588 981.053 103.634C970.913 105.69 963.106 107.345 957.634 108.6C961.314 114.069 967.492 119.256 976.171 124.16C984.01 128.724 992.153 132.756 1000.53 136.227C1008.11 139.283 1012.15 141.107 1012.68 141.744C1013.53 142.736 1014.03 143.986 1014.09 145.295C1014.16 145.944 1014.08 146.6 1013.86 147.215C1013.64 147.829 1013.28 148.386 1012.82 148.845L999.73 154.984C994.069 157.399 986.521 160.949 977.09 165.636L960.112 174.124C958.619 174.86 956.465 176.015 953.643 177.59C950.825 179.165 948.77 180.268 947.49 180.9C940.443 184.38 931.845 189.19 921.692 195.329C913.784 199.991 906.125 205.072 898.758 210.55C886.767 219.689 880.93 226.889 881.238 232.151C887.551 235.622 896.752 237.357 908.845 237.357C923.468 237.357 941.862 234.622 964.029 229.152C986.197 223.683 1004.97 218.199 1020.35 212.7C1035.74 207.24 1049.54 201.931 1061.75 196.772C1090.13 184.908 1109 175.553 1118.34 168.706C1119.34 168.065 1120.28 167.356 1121.17 166.584L1123.23 164.759C1123.68 164.363 1124.19 164.021 1124.73 163.741C1125.27 163.477 1125.86 163.342 1126.47 163.345C1126.6 163.353 1126.74 163.381 1126.86 163.43C1126.99 163.476 1127.11 163.5 1127.25 163.5C1128.66 163.793 1129.94 164.544 1130.88 165.636C1131.42 166.158 1131.85 166.782 1132.15 167.472C1132.45 168.161 1132.6 168.903 1132.61 169.654C1132.55 170.374 1132.34 171.074 1131.99 171.705C1129.78 175.902 1120.39 181.999 1103.83 189.996C1087.26 197.993 1071.99 204.774 1058.01 210.338C1048.97 213.903 1039.54 217.397 1029.71 220.82C1019.88 224.244 1007.69 228.186 993.133 232.646C978.723 237.075 964.083 240.706 949.27 243.525C936.525 246.108 923.563 247.505 910.559 247.698C895.304 247.698 883.986 244.968 876.599 239.507C874.81 238.256 873.366 236.572 872.402 234.614C871.434 232.655 870.983 230.484 871.081 228.304C871.143 225.242 872.012 222.25 873.6 219.632C875.754 216.207 878.35 213.081 881.324 210.338C884.392 207.283 887.703 204.487 891.231 201.978C908.151 189.718 930.282 176.685 957.618 162.878C980.54 151.636 993.211 145.591 995.627 144.743C995.316 144.531 993.207 143.455 989.331 141.503C985.45 139.551 980.84 137.146 975.519 134.26C970.97 131.851 966.622 129.079 962.516 125.971C959.402 123.541 956.453 120.909 953.684 118.091C950.526 114.932 948.577 112.358 947.843 110.368C944.684 110.679 940.164 111.282 934.286 112.179C928.387 113.07 924.24 113.678 921.819 113.989C898.762 117.028 875.532 118.611 852.278 118.728C825.561 118.728 804.161 116.097 788.081 110.835C775.676 106.845 766.947 100.857 761.901 92.8689C760.868 91.0956 760.072 89.1928 759.539 87.2107C759.108 85.6044 758.579 84.0263 757.955 82.486L757.984 74.7338ZM953.389 98.386C966.433 96.8018 984.495 92.6991 1007.57 86.0789C1030.64 79.4586 1046.33 73.2058 1054.64 67.3213C1056.64 65.9064 1058.01 65.0153 1058.75 64.492C1059.87 63.5553 1060.83 62.4361 1061.58 61.1816C1062.63 59.661 1063.16 57.8377 1063.08 55.9902C1058.83 53.6608 1052.6 52.4961 1044.4 52.4961C1031.45 52.7131 1018.6 54.7025 1006.19 58.4094C993.084 61.9641 980.651 67.667 969.407 75.2854C958.84 82.5848 953.504 90.2849 953.389 98.386Z"/>
</mask>
<path d="M757.984 74.7338L769.984 74.7783L769.984 74.7561V74.7338H757.984ZM759.793 68.9764L748.506 64.9005L748.435 65.099L748.37 65.3L759.793 68.9764ZM766.5 55.4952L776.56 62.0363L776.685 61.844L776.803 61.6471L766.5 55.4952ZM776.915 55.1839L787.409 49.3638L787.291 49.1516L787.165 48.9443L776.915 55.1839ZM776.123 61.6487L785.883 68.6312L786.039 68.413L786.185 68.188L776.123 61.6487ZM768.239 81.0428H780.239V81.034L780.239 81.0252L768.239 81.0428ZM779.901 97.2824L774.412 107.953L774.442 107.969L774.472 107.984L779.901 97.2824ZM848.992 108.472L848.992 96.472L848.988 96.472L848.992 108.472ZM877.69 107.524L877.019 95.5431L877.011 95.5435L877.69 107.524ZM911.437 104.54L912.771 116.465L912.781 116.464L912.79 116.463L911.437 104.54ZM926.746 102.318L924.882 90.4641L924.881 90.4642L926.746 102.318ZM943.458 100.083L944.506 112.038L956.482 110.988L955.41 99.0137L943.458 100.083ZM943.302 95.5145H955.302V95.4616L955.301 95.4088L943.302 95.5145ZM947.404 81.0145L957.57 87.3899L957.582 87.371L957.594 87.3521L947.404 81.0145ZM986.824 53.6563L991.158 64.8466L991.158 64.8465L986.824 53.6563ZM1065.67 47.1066L1072.1 36.9769L1071.96 36.8855L1071.81 36.7982L1065.67 47.1066ZM1073.41 59.725L1061.41 59.7441L1061.41 59.8514L1061.41 59.9587L1073.41 59.725ZM1073.24 62.2426L1085.08 64.1742L1085.09 64.114L1085.1 64.0537L1073.24 62.2426ZM1063.15 75.342L1070 85.1952L1070.02 85.1788L1070.04 85.1622L1063.15 75.342ZM1031.45 90.1528L1027.43 78.848L1027.42 78.8496L1031.45 90.1528ZM1007.24 97.7212L1010.26 109.336L1010.26 109.336L1007.24 97.7212ZM981.053 103.634L978.683 91.8705L978.676 91.8719L978.669 91.8733L981.053 103.634ZM957.634 108.6L954.953 96.903L937.929 100.806L947.678 115.298L957.634 108.6ZM976.171 124.16L982.21 113.79L982.142 113.751L982.074 113.712L976.171 124.16ZM1000.53 136.227L995.942 147.313L995.992 147.334L996.043 147.355L1000.53 136.227ZM1012.68 141.744L1003.42 149.38L1003.51 149.485L1003.59 149.588L1012.68 141.744ZM1014.09 145.295L1002.1 145.858L1002.12 146.181L1002.15 146.502L1014.09 145.295ZM1013.86 147.215L1002.57 143.147L1002.56 143.18L1002.54 143.214L1013.86 147.215ZM1012.82 148.845L1017.91 159.71L1019.79 158.83L1021.26 157.373L1012.82 148.845ZM999.73 154.984L1004.44 166.022L1004.63 165.939L1004.83 165.849L999.73 154.984ZM977.09 165.636L971.75 154.89L971.737 154.897L971.724 154.903L977.09 165.636ZM960.112 174.124L965.413 184.89L965.446 184.874L965.478 184.858L960.112 174.124ZM953.643 177.59L947.795 167.112L947.789 167.115L953.643 177.59ZM947.49 180.9L942.18 170.139L942.177 170.14L947.49 180.9ZM921.692 195.329L927.786 205.666L927.844 205.632L927.902 205.598L921.692 195.329ZM898.758 210.55L891.597 200.921L891.54 200.963L891.484 201.006L898.758 210.55ZM881.238 232.151L869.258 232.852L869.645 239.473L875.457 242.667L881.238 232.151ZM1020.35 212.7L1016.33 201.391L1016.32 201.396L1016.31 201.401L1020.35 212.7ZM1061.75 196.772L1057.12 185.7L1057.1 185.709L1057.08 185.718L1061.75 196.772ZM1118.34 168.706L1111.83 158.625L1111.54 158.816L1111.25 159.025L1118.34 168.706ZM1121.17 166.584L1129.02 175.669L1129.08 175.609L1129.15 175.549L1121.17 166.584ZM1123.23 164.759L1115.38 155.675L1115.32 155.734L1115.25 155.794L1123.23 164.759ZM1124.73 163.741L1119.47 152.952L1119.33 153.024L1119.18 153.1L1124.73 163.741ZM1126.47 163.345L1127.16 151.365L1126.84 151.346L1126.52 151.345L1126.47 163.345ZM1126.86 163.43L1122.6 174.645L1122.63 174.659L1122.67 174.672L1126.86 163.43ZM1127.25 163.5L1129.68 151.749L1128.49 151.504L1127.28 151.5L1127.25 163.5ZM1130.88 165.636L1121.8 173.48L1122.16 173.896L1122.55 174.278L1130.88 165.636ZM1132.15 167.472L1121.12 172.195L1121.13 172.223L1121.14 172.25L1132.15 167.472ZM1132.61 169.654L1144.57 170.607L1144.61 170.098L1144.61 169.588L1132.61 169.654ZM1131.99 171.705L1121.51 165.847L1121.44 165.979L1121.37 166.112L1131.99 171.705ZM1058.01 210.338L1062.41 221.501L1062.43 221.494L1062.45 221.488L1058.01 210.338ZM1029.71 220.82L1033.66 232.153L1033.66 232.153L1029.71 220.82ZM993.133 232.646L989.618 221.173L989.609 221.176L993.133 232.646ZM949.27 243.525L947.027 231.736L946.957 231.75L946.887 231.764L949.27 243.525ZM910.559 247.698V259.698H910.648L910.737 259.697L910.559 247.698ZM876.599 239.507L883.731 229.857L883.606 229.764L883.477 229.674L876.599 239.507ZM872.402 234.614L883.169 229.315L883.164 229.306L883.16 229.297L872.402 234.614ZM871.081 228.304L883.069 228.845L883.076 228.695L883.079 228.545L871.081 228.304ZM873.6 219.632L863.441 213.245L863.389 213.327L863.338 213.411L873.6 219.632ZM881.324 210.338L889.46 219.159L889.628 219.004L889.791 218.842L881.324 210.338ZM891.231 201.978L898.186 211.757L898.229 211.726L898.271 211.695L891.231 201.978ZM957.618 162.878L952.334 152.104L952.271 152.135L952.208 152.167L957.618 162.878ZM995.627 144.743L999.605 156.064L1022.03 148.186L1002.38 134.82L995.627 144.743ZM989.331 141.503L994.728 130.785L994.723 130.783L989.331 141.503ZM975.519 134.26L981.241 123.712L981.188 123.684L981.135 123.655L975.519 134.26ZM962.516 125.971L955.133 135.431L955.203 135.486L955.273 135.539L962.516 125.971ZM953.684 118.091L962.243 109.681L962.207 109.644L962.17 109.607L953.684 118.091ZM947.843 110.368L959.101 106.214L955.892 97.5162L946.666 98.4254L947.843 110.368ZM934.286 112.179L936.078 124.044L936.086 124.043L936.094 124.041L934.286 112.179ZM921.819 113.989L920.289 102.087L920.27 102.09L920.251 102.092L921.819 113.989ZM852.278 118.728V130.728H852.308L852.338 130.728L852.278 118.728ZM788.081 110.835L791.813 99.4298L791.784 99.4203L791.755 99.4109L788.081 110.835ZM761.901 92.8689L751.534 98.9123L751.642 99.0968L751.756 99.2773L761.901 92.8689ZM759.539 87.2107L747.948 90.3185L747.951 90.3285L759.539 87.2107ZM757.955 82.486L745.955 82.4415L745.947 84.8012L746.832 86.9885L757.955 82.486ZM953.389 98.386L941.39 98.2159L941.195 111.955L954.836 110.298L953.389 98.386ZM1054.64 67.3213L1061.58 77.1148L1061.59 77.1072L1054.64 67.3213ZM1058.75 64.492L1065.71 74.2642L1066.08 74.0009L1066.43 73.7105L1058.75 64.492ZM1061.58 61.1816L1051.71 54.3447L1051.49 54.675L1051.28 55.0199L1061.58 61.1816ZM1063.08 55.9902L1075.07 55.4844L1074.78 48.7242L1068.85 45.4696L1063.08 55.9902ZM1044.4 52.4961V40.4961H1044.3L1044.2 40.4978L1044.4 52.4961ZM1006.19 58.4094L1009.33 69.9912L1009.48 69.9509L1009.63 69.907L1006.19 58.4094ZM969.407 75.2854L962.676 65.3511L962.631 65.3814L962.587 65.4121L969.407 75.2854ZM757.984 74.7338H769.984C769.984 75.4105 769.925 75.9394 769.897 76.1739C769.863 76.4548 769.825 76.6808 769.8 76.8205C769.751 77.096 769.703 77.3082 769.681 77.4029C769.635 77.603 769.596 77.7462 769.589 77.7718C769.569 77.8451 769.564 77.8578 769.593 77.7613C769.644 77.5894 769.738 77.286 769.885 76.8189C770.174 75.8993 770.616 74.5169 771.216 72.6529L759.793 68.9764L748.37 65.3C747.768 67.1704 747.305 68.617 746.991 69.6177C746.836 70.1107 746.702 70.5403 746.602 70.8737C746.556 71.0299 746.494 71.2384 746.436 71.4504C746.41 71.5454 746.357 71.7438 746.301 71.9848C746.274 72.0999 746.223 72.329 746.171 72.6179C746.156 72.7034 745.984 73.5975 745.984 74.7338H757.984ZM759.793 68.9764L771.08 73.0523C772.476 69.1844 774.316 65.4875 776.56 62.0363L766.5 55.4952L756.439 48.954C753.195 53.9444 750.531 59.2952 748.506 64.9005L759.793 68.9764ZM766.5 55.4952L776.803 61.6471C777.054 61.2259 776.907 61.6327 776.128 62.2054C775.202 62.8854 773.704 63.5484 771.865 63.5484V51.5484V39.5484C763.711 39.5484 758.714 45.1271 756.197 49.3432L766.5 55.4952ZM771.865 51.5484V63.5484C771.116 63.5484 770.294 63.4294 769.466 63.1511C768.645 62.8753 767.987 62.5 767.501 62.1444C766.609 61.4918 766.396 60.9826 766.665 61.4235L776.915 55.1839L787.165 48.9443C784.774 45.0168 780.002 39.5484 771.865 39.5484V51.5484ZM776.915 55.1839L766.421 61.004C765.707 59.7178 765.417 58.179 765.591 56.758C765.741 55.5264 766.168 54.9459 766.061 55.1095L776.123 61.6487L786.185 68.188C789.235 63.4953 791.336 56.4444 787.409 49.3638L776.915 55.1839ZM776.123 61.6487L766.364 54.6663C760.475 62.8968 756.225 71.8462 756.239 81.0605L768.239 81.0428L780.239 81.0252C780.236 79.092 781.245 75.1126 785.883 68.6312L776.123 61.6487ZM768.239 81.0428H756.239C756.239 93.684 763.966 102.58 774.412 107.953L779.901 97.2824L785.39 86.6114C780.29 83.9878 780.239 82.0572 780.239 81.0428H768.239ZM779.901 97.2824L774.472 107.984C791.795 116.773 817.177 120.482 848.995 120.472L848.992 108.472L848.988 96.472C818.135 96.4813 797.452 92.7305 785.33 86.5809L779.901 97.2824ZM848.992 108.472V120.472C857.27 120.472 867.075 120.145 878.369 119.505L877.69 107.524L877.011 95.5435C866.006 96.1673 856.679 96.472 848.992 96.472V108.472ZM877.69 107.524L878.361 119.505C888.079 118.961 899.564 117.943 912.771 116.465L911.437 104.54L910.103 92.614C897.181 94.0596 886.161 95.031 877.019 95.5431L877.69 107.524ZM911.437 104.54L912.79 116.463C915.906 116.11 921.249 115.331 928.611 114.173L926.746 102.318L924.881 90.4642C917.492 91.6266 912.621 92.3282 910.084 92.6161L911.437 104.54ZM926.746 102.318L928.61 114.173C935.922 113.023 941.163 112.331 944.506 112.038L943.458 100.083L942.41 88.1293C938.221 88.4965 932.321 89.2944 924.882 90.4641L926.746 102.318ZM943.458 100.083L955.41 99.0137C955.352 98.3691 955.302 97.2372 955.302 95.5145H943.302H931.302C931.302 97.5827 931.358 99.5061 931.505 101.153L943.458 100.083ZM943.302 95.5145L955.301 95.4088C955.276 92.5749 956.063 89.793 957.57 87.3899L947.404 81.0145L937.237 74.6392C933.297 80.9228 931.237 88.2023 931.302 95.6201L943.302 95.5145ZM947.404 81.0145L957.594 87.3521C962.162 80.0068 972.397 72.1111 991.158 64.8466L986.824 53.6563L982.491 42.466C961.897 50.4408 945.854 60.7847 937.214 74.6769L947.404 81.0145ZM986.824 53.6563L991.158 64.8465C1009.76 57.641 1026.68 54.226 1042.01 54.226V42.226V30.226C1023.11 30.226 1003.24 34.4314 982.491 42.466L986.824 53.6563ZM1042.01 42.226V54.226C1051.37 54.226 1056.74 55.7568 1059.52 57.4149L1065.67 47.1066L1071.81 36.7982C1063.67 31.9488 1053.27 30.226 1042.01 30.226V42.226ZM1065.67 47.1066L1059.23 57.2362C1060.62 58.12 1061.1 58.7687 1061.24 58.99C1061.32 59.1302 1061.41 59.2863 1061.41 59.7441L1073.41 59.725L1085.41 59.7058C1085.39 49.6464 1079.96 41.9682 1072.1 36.9769L1065.67 47.1066ZM1073.41 59.725L1061.41 59.9587C1061.41 60.0997 1061.4 60.2579 1061.38 60.4315L1073.24 62.2426L1085.1 64.0537C1085.33 62.5614 1085.43 61.0349 1085.4 59.4912L1073.41 59.725ZM1073.24 62.2426L1061.39 60.3109C1061.39 60.3118 1061.39 60.3308 1061.38 60.3708C1061.37 60.4114 1061.34 60.4813 1061.3 60.5818C1061.2 60.7838 1061.02 61.1219 1060.66 61.5895C1059.91 62.5581 1058.56 63.9013 1056.25 65.5218L1063.15 75.342L1070.04 85.1622C1077.15 80.1687 1083.59 73.3481 1085.08 64.1742L1073.24 62.2426ZM1063.15 75.342L1056.3 65.4888C1050.67 69.4032 1041.27 73.9172 1027.43 78.848L1031.45 90.1528L1035.48 101.458C1050.02 96.2787 1061.76 90.9191 1070 85.1952L1063.15 75.342ZM1031.45 90.1528L1027.42 78.8496C1018.84 81.9076 1011.11 84.3179 1004.23 86.1066L1007.24 97.7212L1010.26 109.336C1017.97 107.334 1026.39 104.698 1035.48 101.456L1031.45 90.1528ZM1007.24 97.7212L1004.23 86.1062C997.204 87.93 988.697 89.8527 978.683 91.8705L981.053 103.634L983.423 115.398C993.722 113.323 1002.68 111.303 1010.26 109.336L1007.24 97.7212ZM981.053 103.634L978.669 91.8733C968.497 93.9356 960.574 95.6144 954.953 96.903L957.634 108.6L960.316 120.296C965.639 119.076 973.329 117.444 983.437 115.395L981.053 103.634ZM957.634 108.6L947.678 115.298C952.795 122.904 960.722 129.214 970.269 134.608L976.171 124.16L982.074 113.712C974.261 109.298 969.833 105.234 967.591 101.901L957.634 108.6ZM976.171 124.16L970.133 134.53C978.44 139.367 987.065 143.637 995.942 147.313L1000.53 136.227L1005.13 125.14C997.241 121.874 989.581 118.082 982.21 113.79L976.171 124.16ZM1000.53 136.227L996.043 147.355C999.786 148.865 1002.5 150.01 1004.29 150.821C1005.2 151.235 1005.71 151.487 1005.92 151.603C1006.04 151.666 1005.92 151.607 1005.67 151.442C1005.54 151.357 1005.28 151.181 1004.96 150.919C1004.68 150.692 1004.08 150.176 1003.42 149.38L1012.68 141.744L1021.93 134.107C1020.68 132.592 1019.31 131.692 1018.96 131.456C1018.36 131.058 1017.78 130.728 1017.32 130.482C1016.39 129.982 1015.31 129.468 1014.2 128.964C1011.95 127.94 1008.85 126.644 1005.02 125.099L1000.53 136.227ZM1012.68 141.744L1003.59 149.588C1002.69 148.537 1002.17 147.22 1002.1 145.858L1014.09 145.295L1026.08 144.731C1025.89 140.752 1024.38 136.935 1021.76 133.899L1012.68 141.744ZM1014.09 145.295L1002.15 146.502C1002.04 145.401 1002.17 144.253 1002.57 143.147L1013.86 147.215L1025.15 151.283C1025.99 148.947 1026.27 146.486 1026.03 144.088L1014.09 145.295ZM1013.86 147.215L1002.54 143.214C1002.94 142.085 1003.58 141.103 1004.38 140.317L1012.82 148.845L1021.26 157.373C1022.98 155.669 1024.34 153.574 1025.17 151.216L1013.86 147.215ZM1012.82 148.845L1007.72 137.981L994.634 144.12L999.73 154.984L1004.83 165.849L1017.91 159.71L1012.82 148.845ZM999.73 154.984L995.022 143.946C989.05 146.493 981.266 150.161 971.75 154.89L977.09 165.636L982.431 176.382C991.776 171.738 999.087 168.304 1004.44 166.022L999.73 154.984ZM977.09 165.636L971.724 154.903L954.746 163.391L960.112 174.124L965.478 184.858L982.456 176.37L977.09 165.636ZM960.112 174.124L954.81 163.359C953.029 164.236 950.656 165.515 947.795 167.112L953.643 177.59L959.492 188.068C962.275 186.515 964.208 185.483 965.413 184.89L960.112 174.124ZM953.643 177.59L947.789 167.115C944.995 168.676 943.166 169.652 942.18 170.139L947.49 180.9L952.8 191.661C954.373 190.885 956.655 189.654 959.497 188.065L953.643 177.59ZM947.49 180.9L942.177 170.14C934.712 173.827 925.796 178.824 915.483 185.06L921.692 195.329L927.902 205.598C937.894 199.555 946.174 194.933 952.803 191.66L947.49 180.9ZM921.692 195.329L915.598 184.992C907.324 189.87 899.309 195.186 891.597 200.921L898.758 210.55L905.918 220.18C912.941 214.958 920.243 210.113 927.786 205.666L921.692 195.329ZM898.758 210.55L891.484 201.006C885.139 205.842 879.841 210.591 876.066 215.246C872.563 219.565 868.838 225.666 869.258 232.852L881.238 232.151L893.217 231.451C893.33 233.375 892.37 233.244 894.707 230.363C896.771 227.818 900.387 224.397 906.032 220.094L898.758 210.55ZM881.238 232.151L875.457 242.667C884.362 247.562 895.938 249.357 908.845 249.357V237.357V225.357C897.566 225.357 890.74 223.681 887.019 221.636L881.238 232.151ZM908.845 237.357V249.357C924.819 249.357 944.258 246.391 966.904 240.803L964.029 229.152L961.155 217.502C939.466 222.854 922.117 225.357 908.845 225.357V237.357ZM964.029 229.152L966.904 240.803C989.324 235.271 1008.51 229.676 1024.39 224L1020.35 212.7L1016.31 201.401C1001.43 206.721 983.07 212.094 961.155 217.502L964.029 229.152ZM1020.35 212.7L1024.36 224.01C1039.93 218.488 1053.95 213.094 1066.42 207.826L1061.75 196.772L1057.08 185.718C1045.13 190.767 1031.56 195.992 1016.33 201.391L1020.35 212.7ZM1061.75 196.772L1066.38 207.844C1094.65 196.024 1114.78 186.188 1125.43 178.387L1118.34 168.706L1111.25 159.025C1103.21 164.917 1085.61 173.793 1057.12 185.7L1061.75 196.772ZM1118.34 168.706L1124.85 178.787C1126.32 177.837 1127.71 176.794 1129.02 175.669L1121.17 166.584L1113.33 157.5C1112.85 157.918 1112.35 158.293 1111.83 158.625L1118.34 168.706ZM1121.17 166.584L1129.15 175.549L1131.2 173.724L1123.23 164.759L1115.25 155.794L1113.2 157.619L1121.17 166.584ZM1123.23 164.759L1131.07 173.843C1130.82 174.058 1130.55 174.237 1130.27 174.382L1124.73 163.741L1119.18 153.1C1117.83 153.805 1116.55 154.667 1115.38 155.675L1123.23 164.759ZM1124.73 163.741L1129.98 174.53C1128.86 175.074 1127.64 175.35 1126.41 175.345L1126.47 163.345L1126.52 151.345C1124.09 151.333 1121.67 151.881 1119.47 152.952L1124.73 163.741ZM1126.47 163.345L1125.78 175.325C1124.7 175.263 1123.63 175.037 1122.6 174.645L1126.86 163.43L1131.13 152.214C1129.85 151.726 1128.51 151.442 1127.16 151.365L1126.47 163.345ZM1126.86 163.43L1122.67 174.672C1124.06 175.192 1125.59 175.495 1127.21 175.5L1127.25 163.5L1127.28 151.5C1128.63 151.504 1129.91 151.759 1131.06 152.187L1126.86 163.43ZM1127.25 163.5L1124.81 175.251C1123.64 175.008 1122.58 174.382 1121.8 173.48L1130.88 165.636L1139.96 157.793C1137.3 154.706 1133.68 152.578 1129.68 151.749L1127.25 163.5ZM1130.88 165.636L1122.55 174.278C1121.94 173.69 1121.45 172.981 1121.12 172.195L1132.15 167.472L1143.18 162.748C1142.25 160.582 1140.9 158.627 1139.21 156.994L1130.88 165.636ZM1132.15 167.472L1121.14 172.25C1120.79 171.45 1120.61 170.589 1120.61 169.719L1132.61 169.654L1144.61 169.588C1144.59 167.218 1144.1 164.872 1143.16 162.693L1132.15 167.472ZM1132.61 169.654L1120.64 168.7C1120.72 167.734 1121.01 166.757 1121.51 165.847L1131.99 171.705L1142.46 177.563C1143.67 175.392 1144.38 173.014 1144.57 170.607L1132.61 169.654ZM1131.99 171.705L1121.37 166.112C1121.78 165.329 1121.98 165.376 1121.02 166.234C1120.17 166.991 1118.8 168.034 1116.75 169.362C1112.66 172.017 1106.69 175.29 1098.61 179.19L1103.83 189.996L1109.04 200.802C1117.53 196.704 1124.53 192.93 1129.83 189.489C1132.48 187.768 1134.9 186 1136.95 184.183C1138.88 182.468 1141.09 180.179 1142.6 177.299L1131.99 171.705ZM1103.83 189.996L1098.61 179.19C1082.25 187.089 1067.24 193.75 1053.57 199.189L1058.01 210.338L1062.45 221.488C1076.74 215.798 1092.28 208.897 1109.04 200.802L1103.83 189.996ZM1058.01 210.338L1053.61 199.175C1044.73 202.676 1035.45 206.114 1025.76 209.488L1029.71 220.82L1033.66 232.153C1043.63 228.68 1053.22 225.129 1062.41 221.501L1058.01 210.338ZM1029.71 220.82L1025.76 209.488C1016.13 212.845 1004.09 216.739 989.618 221.173L993.133 232.646L996.649 244.12C1011.29 239.633 1023.64 235.642 1033.66 232.153L1029.71 220.82ZM993.133 232.646L989.609 221.176C975.619 225.475 961.406 229 947.027 231.736L949.27 243.525L951.513 255.313C966.759 252.412 981.827 248.675 996.658 244.117L993.133 232.646ZM949.27 243.525L946.887 231.764C934.868 234.2 922.644 235.518 910.381 235.699L910.559 247.698L910.737 259.697C924.481 259.493 938.182 258.016 951.654 255.286L949.27 243.525ZM910.559 247.698V235.698C896.329 235.698 888.087 233.076 883.731 229.857L876.599 239.507L869.466 249.157C879.886 256.859 894.279 259.698 910.559 259.698V247.698ZM876.599 239.507L883.477 229.674C883.346 229.582 883.239 229.458 883.169 229.315L872.402 234.614L861.635 239.913C863.493 243.687 866.275 246.93 869.72 249.34L876.599 239.507ZM872.402 234.614L883.16 229.297C883.097 229.17 883.061 229.017 883.069 228.845L871.081 228.304L859.094 227.762C858.904 231.952 859.771 236.14 861.644 239.931L872.402 234.614ZM871.081 228.304L883.079 228.545C883.098 227.597 883.367 226.668 883.861 225.853L873.6 219.632L863.338 213.411C860.658 217.833 859.188 222.886 859.084 228.062L871.081 228.304ZM873.6 219.632L883.759 226.019C885.35 223.489 887.267 221.182 889.46 219.159L881.324 210.338L873.188 201.518C869.434 204.981 866.157 208.925 863.441 213.245L873.6 219.632ZM881.324 210.338L889.791 218.842C892.395 216.249 895.201 213.88 898.186 211.757L891.231 201.978L884.276 192.199C880.205 195.094 876.39 198.318 872.858 201.834L881.324 210.338ZM891.231 201.978L898.271 211.695C914.498 199.938 936.024 187.228 963.028 173.589L957.618 162.878L952.208 152.167C924.539 166.141 901.805 179.498 884.19 192.26L891.231 201.978ZM957.618 162.878L962.902 173.652C974.35 168.038 983.203 163.738 989.48 160.743C992.622 159.244 995.081 158.09 996.88 157.268C998.877 156.356 999.61 156.062 999.605 156.064L995.627 144.743L991.65 133.421C989.67 134.117 985.146 136.219 979.145 139.083C972.752 142.133 963.808 146.477 952.334 152.104L957.618 162.878ZM995.627 144.743L1002.38 134.82C1001.43 134.178 999.89 133.405 999.296 133.1C998.2 132.537 996.666 131.761 994.728 130.785L989.331 141.503L983.934 152.221C985.872 153.197 987.331 153.935 988.336 154.451C988.843 154.711 989.191 154.893 989.41 155.009C989.522 155.069 989.556 155.089 989.54 155.08C989.532 155.075 989.479 155.045 989.399 154.997C989.343 154.964 989.141 154.843 988.879 154.665L995.627 144.743ZM989.331 141.503L994.723 130.783C990.966 128.893 986.465 126.546 981.241 123.712L975.519 134.26L969.798 144.809C975.214 147.747 979.935 150.209 983.938 152.223L989.331 141.503ZM975.519 134.26L981.135 123.655C977.156 121.549 973.352 119.123 969.758 116.403L962.516 125.971L955.273 135.539C959.892 139.035 964.784 142.154 969.904 144.865L975.519 134.26ZM962.516 125.971L969.899 116.511C967.201 114.406 964.645 112.124 962.243 109.681L953.684 118.091L945.125 126.502C948.261 129.694 951.604 132.677 955.133 135.431L962.516 125.971ZM953.684 118.091L962.17 109.607C960.844 108.28 959.967 107.269 959.425 106.552C958.831 105.767 958.906 105.685 959.101 106.214L947.843 110.368L936.585 114.521C938.283 119.125 941.879 123.257 945.198 126.576L953.684 118.091ZM947.843 110.368L946.666 98.4254C943.188 98.7681 938.419 99.4098 932.477 100.316L934.286 112.179L936.094 124.041C941.909 123.155 946.181 122.589 949.02 122.31L947.843 110.368ZM934.286 112.179L932.493 100.313C926.569 101.208 922.555 101.796 920.289 102.087L921.819 113.989L923.35 125.891C925.924 125.56 930.205 124.931 936.078 124.044L934.286 112.179ZM921.819 113.989L920.251 102.092C897.694 105.065 874.967 106.614 852.217 106.728L852.278 118.728L852.338 130.728C876.097 130.609 899.83 128.991 923.388 125.886L921.819 113.989ZM852.278 118.728V106.728C826.184 106.728 806.199 104.138 791.813 99.4298L788.081 110.835L784.348 122.239C802.122 128.056 824.938 130.728 852.278 130.728V118.728ZM788.081 110.835L791.755 99.4109C781.016 95.9572 775.106 91.3034 772.047 86.4606L761.901 92.8689L751.756 99.2773C758.788 110.41 770.336 117.733 784.407 122.258L788.081 110.835ZM761.901 92.8689L772.269 86.8255C771.766 85.9635 771.382 85.0438 771.127 84.093L759.539 87.2107L747.951 90.3285C748.761 93.3418 749.969 96.2278 751.534 98.9123L761.901 92.8689ZM759.539 87.2107L771.129 84.103C770.571 82.0208 769.885 79.977 769.078 77.9834L757.955 82.486L746.832 86.9885C747.272 88.0756 747.645 89.1879 747.948 90.3185L759.539 87.2107ZM757.955 82.486L769.955 82.5304L769.984 74.7783L757.984 74.7338L745.984 74.6894L745.955 82.4415L757.955 82.486ZM953.389 98.386L954.836 110.298C968.826 108.599 987.605 104.291 1010.88 97.6135L1007.57 86.0789L1004.26 74.5442C981.384 81.1074 964.041 85.0042 951.942 86.4735L953.389 98.386ZM1007.57 86.0789L1010.88 97.6135C1033.96 90.9895 1051.44 84.2924 1061.58 77.1148L1054.64 67.3213L1047.71 57.5277C1041.22 62.1192 1027.32 67.9277 1004.26 74.5442L1007.57 86.0789ZM1054.64 67.3213L1061.59 77.1072C1062.49 76.466 1063.26 75.9403 1063.91 75.4983C1064.47 75.1157 1065.2 74.6296 1065.71 74.2642L1058.75 64.492L1051.78 54.7197C1051.56 54.8777 1051.23 55.0988 1050.42 55.6463C1049.7 56.1344 1048.79 56.7616 1047.7 57.5353L1054.64 67.3213ZM1058.75 64.492L1066.43 73.7105C1068.59 71.9053 1070.43 69.7514 1071.87 67.3434L1061.58 61.1816L1051.28 55.0199C1051.22 55.1209 1051.14 55.2053 1051.06 55.2735L1058.75 64.492ZM1061.58 61.1816L1071.44 68.0186C1073.99 64.3367 1075.25 59.9324 1075.07 55.4844L1063.08 55.9902L1051.09 56.4959C1051.06 55.7429 1051.27 54.9853 1051.71 54.3447L1061.58 61.1816ZM1063.08 55.9902L1068.85 45.4696C1062 41.7133 1053.39 40.4961 1044.4 40.4961V52.4961V64.4961C1051.82 64.4961 1055.66 65.6083 1057.31 66.5107L1063.08 55.9902ZM1044.4 52.4961L1044.2 40.4978C1030.16 40.7331 1016.21 42.8909 1002.76 46.9118L1006.19 58.4094L1009.63 69.907C1020.98 66.514 1032.75 64.693 1044.6 64.4944L1044.4 52.4961ZM1006.19 58.4094L1003.05 46.8276C988.665 50.7291 975.018 56.9884 962.676 65.3511L969.407 75.2854L976.138 85.2197C986.284 78.3456 997.503 73.1991 1009.33 69.9912L1006.19 58.4094ZM969.407 75.2854L962.587 65.4121C950.733 73.6002 941.586 84.3843 941.39 98.2159L953.389 98.386L965.388 98.5561C965.421 96.1854 966.947 91.5694 976.228 85.1588L969.407 75.2854Z" fill="white" mask="url(#path-7-inside-2_4_16)"/>
<path d="M1124.24 177.769L1126.17 176.893L1123.41 178.426L1123.4 178.433L1123.39 178.439C1122.66 178.845 1122.07 179.171 1121.6 179.423L1121.47 179.3C1122.82 176.843 1124.8 173.321 1127.44 168.722L1127.44 168.719C1127.65 168.359 1127.85 168.004 1128.05 167.656L1124.24 177.769Z" stroke="white" stroke-width="12"/>
<path d="M1215.7 177.816L1217.95 176.798C1217.95 176.801 1217.95 176.803 1217.94 176.806L1217.89 176.83L1217.85 176.856L1215.02 178.426L1215.01 178.431L1215 178.435C1214.27 178.842 1213.67 179.169 1213.2 179.423L1213.14 179.35L1213.07 179.294C1214.39 176.859 1216.37 173.346 1219.04 168.735C1219.2 168.449 1219.36 168.167 1219.52 167.889L1215.7 177.816Z" stroke="white" stroke-width="12"/>
<path d="M1349.93 146.616C1351.12 146.546 1352.3 146.884 1353.28 147.563C1353.98 148.159 1354.18 148.53 1354.22 148.624C1354.22 148.662 1354.2 148.738 1354.16 148.857L1354.15 148.882L1354.14 148.893C1353.8 149.315 1353.45 149.694 1353.11 150.042C1352.81 150.319 1352.48 150.573 1352.11 150.795L1352.07 150.821L1352.03 150.849C1351.66 151.082 1351.31 151.295 1350.92 151.532C1350.55 151.757 1350.11 152.019 1349.69 152.29L1349.68 152.297C1349.66 152.31 1349.55 152.369 1349.3 152.485C1348.94 152.645 1348.57 152.797 1347.94 153.063L1347.93 153.068L1345.33 154.17C1345.01 154.304 1344.51 154.496 1343.77 154.755L1342.94 155.035C1341.57 155.493 1340.73 155.811 1340.34 155.953L1340.32 155.957L1340.31 155.962C1340.06 156.056 1339.38 156.284 1338.21 156.64L1338.12 156.667L1338.02 156.697C1337.58 156.848 1337.12 156.977 1336.65 157.083L1336.41 157.138L1336.17 157.212C1334.78 157.65 1332.03 158.335 1327.71 159.28L1327.7 159.282L1327.69 159.284L1320.83 160.807C1320.12 160.921 1319.44 161.119 1318.79 161.389C1325.34 155.663 1332.89 151.171 1341.08 148.151L1341.08 148.152C1343.81 147.149 1346.69 146.632 1349.59 146.627L1349.76 146.626L1349.93 146.616Z" stroke="white" stroke-width="12"/>
</svg>
